<?xml version="1.0" encoding="UTF-8" standalone="no"?>
<svg
   xmlns:dc="http://purl.org/dc/elements/1.1/"
   xmlns:cc="http://creativecommons.org/ns#"
   xmlns:rdf="http://www.w3.org/1999/02/22-rdf-syntax-ns#"
   xmlns:svg="http://www.w3.org/2000/svg"
   xmlns="http://www.w3.org/2000/svg"
   xmlns:sodipodi="http://sodipodi.sourceforge.net/DTD/sodipodi-0.dtd"
   xmlns:inkscape="http://www.inkscape.org/namespaces/inkscape"
   viewBox="0 0 19 19"
   height="19"
   width="19"
   id="svg4417"
   version="1.1"
   inkscape:version="0.91 r13725"
   sodipodi:docname="test-15.svg">
  <metadata
     id="metadata4429">
    <rdf:RDF>
      <cc:Work
         rdf:about="">
        <dc:format>image/svg+xml</dc:format>
        <dc:type
           rdf:resource="http://purl.org/dc/dcmitype/StillImage" />
        <dc:title>circle-15.svg</dc:title>
      </cc:Work>
    </rdf:RDF>
  </metadata>
  <defs
     id="defs4427" />
  <sodipodi:namedview
     pagecolor="#ffffff"
     bordercolor="#666666"
     borderopacity="1"
     objecttolerance="10"
     gridtolerance="10"
     guidetolerance="10"
     inkscape:pageopacity="0"
     inkscape:pageshadow="2"
     inkscape:window-width="1712"
     inkscape:window-height="1056"
     id="namedview4425"
     showgrid="false"
     inkscape:zoom="31.118702"
     inkscape:cx="8.9907131"
     inkscape:cy="6.8629557"
     inkscape:window-x="136"
     inkscape:window-y="18"
     inkscape:window-maximized="0"
     inkscape:current-layer="svg4417" />
  <title
     id="title4419">circle-15.svg</title>
  <rect
     fill="none"
     x="0"
     y="0"
     width="19"
     height="19"
     id="rect4421" />
  <g
     transform="matrix(0.23237179,0,0,0.34074228,0.21850295,2.2404967)"
     id="g4557"
     style="fill:#0000f0;fill-opacity:1">
    <path
       style="fill:#0000f0;fill-opacity:1"
       inkscape:connector-curvature="0"
       d="m 36.688,21.106 c 0,-0.018 0.007,-0.035 0.008,-0.053 L 4.078,5.285 l 0,31.64 32.618,-15.766 c -10e-4,-0.018 -0.008,-0.035 -0.008,-0.053 z"
       id="path4559" />
    <path
       style="fill:#0000f0;fill-opacity:1"
       inkscape:connector-curvature="0"
       d="m 43.528,21.106 c 0,0.019 -0.008,0.036 -0.009,0.055 l 32.612,15.766 0,-31.643 -32.612,15.767 c 0.001,0.019 0.009,0.036 0.009,0.055 z"
       id="path4561" />
    <path
       style="fill:#0000f0;fill-opacity:1"
       inkscape:connector-curvature="0"
       d="m 79.256,0.313 c -0.598,-0.375 -1.34,-0.416 -1.971,-0.11 L 40.107,18.174 2.926,0.203 C 2.297,-0.103 1.55,-0.061 0.955,0.312 0.364,0.682 0,1.335 0,2.039 l 0,38.138 c 0,0.701 0.364,1.354 0.959,1.724 0.33,0.207 0.707,0.311 1.083,0.311 0.301,0 0.603,-0.065 0.883,-0.203 l 37.182,-17.97 37.178,17.97 c 0.281,0.138 0.585,0.203 0.888,0.203 0.376,0 0.75,-0.104 1.079,-0.309 0.595,-0.374 0.957,-1.024 0.957,-1.726 l 0,-38.138 c 0,-0.706 -0.362,-1.356 -0.953,-1.726 z M 4.078,5.285 36.696,21.054 c -10e-4,0.018 -0.008,0.035 -0.008,0.053 0,0.018 0.007,0.035 0.008,0.053 L 4.078,36.924 4.078,5.285 Z M 76.131,36.926 43.519,21.161 c 0.001,-0.019 0.009,-0.036 0.009,-0.055 0,-0.019 -0.008,-0.036 -0.009,-0.055 l 32.612,-15.767 0,31.642 z"
       id="path4563" />
  </g>
  <path
     style="opacity:0;fill:#0000f0;fill-opacity:1;stroke:#ff9b00;stroke-opacity:1"
     id="path5139"
     d="m 6.5048857,2.5262551 c 0.2650626,0.1138931 0.5134308,0.2613199 0.7599941,0.4100828 0.276224,0.159189 0.5415905,0.3348001 0.8048216,0.5142624 0.096314,0.075994 0.1984351,0.1450254 0.2895876,0.2274663 0.07951,0.071911 0.010029,0.018044 0.083807,0.072315 0.05516,0.04278 0.1100824,0.083264 0.1690452,0.1205861 0.036293,0.0011 0.045477,0.042184 0.078631,0.046435 0,0 -0.3987138,0.2654274 -0.3987138,0.2654274 l 0,0 C 8.2639263,4.1650982 8.2424372,4.1395297 8.2100844,4.1279895 8.1534759,4.0870295 8.0961141,4.0476228 8.0431129,4.0018181 7.9514005,3.9237558 8.0559631,4.0148549 7.9617222,3.925521 7.8744347,3.8427784 7.77626,3.7728759 7.6832685,3.6969569 7.425666,3.5141867 7.1646219,3.3368499 6.8909705,3.1785194 6.6406474,3.032403 6.3880087,2.8846946 6.1123364,2.7910498 c 0,0 0.3925493,-0.2647947 0.3925493,-0.2647947 z"
     inkscape:connector-curvature="0" />
  <path
     style="opacity:0;fill:#0000f0;fill-opacity:1;stroke:#ff9b00;stroke-opacity:1"
     id="path5141"
     d="M 11.734395,2.8477138 C 11.390939,2.8376926 11.048771,2.7959019 10.707162,2.7604473 9.9614151,2.6884254 9.215026,2.626241 8.4664047,2.5950763 8.0091668,2.5752795 7.551738,2.5602147 7.0940819,2.5558708 6.9918559,2.5599608 6.8883646,2.5496708 6.7862564,2.5589308 7.1823001,2.244189 7.059153,2.2648362 7.3010143,2.3076222 c 0.010596,0.0057 0.033181,-0.00428 0.043206,0.00259 0.021018,0.014395 0.044206,0.043552 0.062305,0.061086 0.1237299,0.132067 0.2456543,0.2654141 0.3736287,0.3935262 0.197757,0.2302405 0.4342999,0.418778 0.6783526,0.5968303 0.04097,0.026362 0.1588101,0.1040641 0.2046958,0.1264516 0.119203,0.058159 0.2528396,0.090858 0.3817821,0.1185471 0.091428,0.017002 0.184559,0.025736 0.2775701,0.023572 0.00711,-1.564e-4 0.014511,0.00152 0.021343,-4.691e-4 0.024958,-0.00727 0.00177,-0.00904 0.020061,-0.019594 0.00475,-0.00274 0.020826,-0.00623 0.016087,-0.00347 C 8.9358155,3.8654847 8.8698082,3.9150265 9.0163215,3.8086243 9.1292956,3.712699 9.227362,3.6016633 9.3234612,3.4893384 9.4293142,3.3560771 9.5252067,3.211203 9.5829068,3.0504198 9.5896816,3.0184562 9.6056387,2.971158 9.5926586,2.9366945 9.5556588,2.8384565 9.311239,2.8222591 9.2342192,2.8106202 8.9322081,2.7799675 8.6275007,2.7704451 8.3241562,2.7843354 c -0.1356539,0.00621 -0.3404622,0.026587 -0.4770424,0.039175 -0.229564,0.024988 -0.4596796,0.055138 -0.6841747,0.110819 -0.056812,0.014091 -0.1125398,0.032242 -0.1689489,0.047867 -0.00982,0.00593 -0.038973,0.024221 -0.029474,0.017784 0.1335801,-0.090525 0.2635649,-0.1867539 0.4017546,-0.2700729 0.013779,-0.00831 0.032166,-0.00152 0.048254,-0.00125 0.028066,4.641e-4 0.056083,0.00256 0.084138,0.00344 0.1123717,0.00354 0.1451062,0.00326 0.2623957,0.00459 0.2057696,0.00409 0.4127922,-0.0011 0.6155304,-0.040118 0.1011568,-0.019468 0.14816,-0.036809 0.244577,-0.066731 0.1371898,-0.063128 0.3762216,-0.1760105 -0.2340172,0.1393822 -0.019325,0.00999 0.035714,-0.025076 0.051671,-0.039861 0.045922,-0.042547 0.057414,-0.060679 0.045663,-0.1194026 -0.068982,-0.093821 -0.181094,-0.13187 -0.2865578,-0.1688393 -0.040171,-0.018665 -0.082318,-0.030692 -0.1252972,-0.040424 0,0 0.3922207,-0.2690202 0.3922207,-0.2690202 l 0,0 c 0.041756,0.013737 0.082463,0.02993 0.1232796,0.046274 0.1185576,0.044857 0.2403301,0.0958 0.3118515,0.2064504 0.00598,0.019326 0.016434,0.037803 0.017941,0.057977 0.00479,0.064079 -0.044935,0.1263989 -0.096503,0.1579542 -0.4310666,0.2637774 -0.3139613,0.2125897 -0.5640563,0.3100277 -0.1026206,0.028348 -0.1368099,0.040539 -0.2446505,0.058387 -0.204743,0.033886 -0.4126165,0.035984 -0.6195578,0.035038 -0.1193432,4.559e-4 -0.2430341,0.00878 -0.362211,-0.00154 -0.022293,-0.00193 -0.082233,0.00428 -0.066173,-0.011298 C 7.236779,2.7270545 7.1928166,2.7424075 7.3657568,2.6972137 7.6395407,2.6293904 7.918161,2.5853552 8.199484,2.5627868 c 0.4671375,-0.038372 0.9368067,-0.060096 1.404378,-0.012535 0.1218474,0.017594 0.3482522,0.028514 0.406296,0.1683794 0.0188,0.045303 0.0039,0.088266 -0.0041,0.1329169 -0.00761,0.025101 -0.013644,0.050736 -0.022836,0.075303 C 9.954627,3.0032771 9.949169,2.9985641 9.907039,3.0691081 9.858174,3.1509301 9.81322,3.2354486 9.750723,3.3082952 9.657005,3.4193639 9.5637384,3.5309569 9.4570045,3.6300192 9.3165063,3.7721636 9.4436995,3.6477962 9.0033433,3.9025995 c -0.02201,0.012736 -0.042934,0.00871 -0.068123,0.00778 C 8.8432137,3.9041494 8.7512583,3.8934389 8.6614705,3.8719207 8.4505004,3.8175132 8.2463208,3.7438235 8.0745561,3.6050509 7.8298814,3.4243556 7.5957242,3.22972 7.3909396,3.0038323 7.2600465,2.8778474 7.1338266,2.7472664 7.0026918,2.6218056 c -4.669e-4,-3.862e-4 -0.038295,-0.032502 -0.045225,-0.03582 -0.0017,-8.147e-4 -0.049165,0.0027 -0.049415,-0.0044 -0.225985,-0.049506 -0.1951596,-0.00314 0.2666167,-0.3051232 0.096076,0.00957 0.1935933,0.00342 0.2897515,0.01176 0.4463233,0.018443 0.8925067,0.040135 1.3385371,0.064668 0.7510282,0.037168 1.4996689,0.1047376 2.2493909,0.1615493 0.354955,0.028264 0.711451,0.064228 1.067895,0.052941 0,0 -0.385847,0.2803338 -0.385847,0.2803338 z"
     inkscape:connector-curvature="0" />
  <path
     style="opacity:0;fill:#0000f0;fill-opacity:1;stroke:#ff9b00;stroke-opacity:1"
     id="path5143"
     d="m 8.165461,2.0720753 c 0.1644764,0.091219 0.3370077,0.1675668 0.5047705,0.2527083 0.2295816,0.1146985 0.4551605,0.2368672 0.6777368,0.3646048 0.164477,0.097172 0.3360751,0.1836524 0.4934075,0.2923972 0.06163,0.040992 0.1241572,0.079927 0.1805032,0.1281822 0,0 -0.4070382,0.2524473 -0.4070382,0.2524473 l 0,0 C 9.5631487,3.3134666 9.5027619,3.2760807 9.4459194,3.233591 9.292603,3.1236739 9.124163,3.0368466 8.9630625,2.9391753 8.7425648,2.8092034 8.5157412,2.6907417 8.2861919,2.5775832 8.1158588,2.4945766 7.9444793,2.4134102 7.7707394,2.3377614 c 0,0 0.3947216,-0.2656861 0.3947216,-0.2656861 z"
     inkscape:connector-curvature="0" />
</svg>
